<svg version="1.1" xmlns="http://www.w3.org/2000/svg" xmlns:xlink="http://www.w3.org/1999/xlink" width="812" height="611"><defs/><g><g transform="translate(-22,-14) scale(1,1)"><path fill="#ffffff" stroke="none" d="M 57.12028781960227 545.6800000000001 C 57.12028781960227 540.8861679360001 61.006130144547726 537 65.799560546875 537 C 70.59299094920227 537 74.47883327414773 540.8861679360001 74.47883327414773 545.6800000000001 C 74.47883327414773 550.473832064 70.59299094920227 554.36 65.799560546875 554.36 C 61.006130144547726 554.36 57.12028781960227 550.473832064 57.12028781960227 545.6800000000001 Z"/></g><g transform="translate(-22,-14) scale(1,1)"><path fill="none" stroke="#000000" d="M 57.12028781960227 545.6800000000001 C 57.12028781960227 540.8861679360001 61.006130144547726 537 65.799560546875 537 C 70.59299094920227 537 74.47883327414773 540.8861679360001 74.47883327414773 545.6800000000001 C 74.47883327414773 550.473832064 70.59299094920227 554.36 65.799560546875 554.36 C 61.006130144547726 554.36 57.12028781960227 550.473832064 57.12028781960227 545.6800000000001 Z" stroke-miterlimit="10"/></g><g transform="translate(-22,-14) scale(1,1)"><path fill="none" stroke="#000000" d="M 65.799560546875 554.36 L 65.799560546875 571.64" stroke-miterlimit="10"/></g><g transform="translate(-22,-14) scale(1,1)"><path fill="none" stroke="#000000" d="M 56.60974236505682 560.84 L 74.98937872869318 560.84" stroke-miterlimit="10"/></g><g transform="translate(-22,-14) scale(1,1)"><path fill="none" stroke="#000000" d="M 65.799560546875 571.64 L 53.035924183238635 589" stroke-miterlimit="10"/></g><g transform="translate(-22,-14) scale(1,1)"><path fill="none" stroke="#000000" d="M 65.799560546875 571.64 L 78.56319691051137 589" stroke-miterlimit="10"/></g><g transform="translate(-22,-14) scale(1,1)"><g><path fill="none" stroke="none"/><text fill="#000000" stroke="none" font-family="Arial" font-size="13px" font-style="normal" font-weight="bold" text-decoration="none" x="52.075927734375" y="609.5">User</text></g></g><g transform="translate(-22,-14) scale(1,1)"><path fill="#ffffff" stroke="none" d="M 184.40935031960228 121.68 C 184.40935031960228 116.886167936 188.29519264454774 113 193.088623046875 113 C 197.88205344920226 113 201.76789577414772 116.886167936 201.76789577414772 121.68 C 201.76789577414772 126.473832064 197.88205344920226 130.36 193.088623046875 130.36 C 188.29519264454774 130.36 184.40935031960228 126.473832064 184.40935031960228 121.68 Z"/></g><g transform="translate(-22,-14) scale(1,1)"><path fill="none" stroke="#000000" d="M 184.40935031960228 121.68 C 184.40935031960228 116.886167936 188.29519264454774 113 193.088623046875 113 C 197.88205344920226 113 201.76789577414772 116.886167936 201.76789577414772 121.68 C 201.76789577414772 126.473832064 197.88205344920226 130.36 193.088623046875 130.36 C 188.29519264454774 130.36 184.40935031960228 126.473832064 184.40935031960228 121.68 Z" stroke-miterlimit="10"/></g><g transform="translate(-22,-14) scale(1,1)"><path fill="none" stroke="#000000" d="M 193.088623046875 130.36 L 193.088623046875 147.64" stroke-miterlimit="10"/></g><g transform="translate(-22,-14) scale(1,1)"><path fill="none" stroke="#000000" d="M 183.89880486505683 136.84 L 202.27844122869317 136.84" stroke-miterlimit="10"/></g><g transform="translate(-22,-14) scale(1,1)"><path fill="none" stroke="#000000" d="M 193.088623046875 147.64 L 180.32498668323865 165" stroke-miterlimit="10"/></g><g transform="translate(-22,-14) scale(1,1)"><path fill="none" stroke="#000000" d="M 193.088623046875 147.64 L 205.85225941051135 165" stroke-miterlimit="10"/></g><g transform="translate(-22,-14) scale(1,1)"><g><path fill="none" stroke="none"/><text fill="#000000" stroke="none" font-family="Arial" font-size="13px" font-style="normal" font-weight="bold" text-decoration="none" x="175.746826171875" y="185.5">Guest</text></g></g><g transform="translate(-22,-14) scale(1,1)"><path fill="#ffffff" stroke="none" d="M 739.6002682883523 33.68 C 739.6002682883523 28.886167936 743.4861106132977 25 748.279541015625 25 C 753.0729714179523 25 756.9588137428977 28.886167936 756.9588137428977 33.68 C 756.9588137428977 38.473832064 753.0729714179523 42.36 748.279541015625 42.36 C 743.4861106132977 42.36 739.6002682883523 38.473832064 739.6002682883523 33.68 Z"/></g><g transform="translate(-22,-14) scale(1,1)"><path fill="none" stroke="#000000" d="M 739.6002682883523 33.68 C 739.6002682883523 28.886167936 743.4861106132977 25 748.279541015625 25 C 753.0729714179523 25 756.9588137428977 28.886167936 756.9588137428977 33.68 C 756.9588137428977 38.473832064 753.0729714179523 42.36 748.279541015625 42.36 C 743.4861106132977 42.36 739.6002682883523 38.473832064 739.6002682883523 33.68 Z" stroke-miterlimit="10"/></g><g transform="translate(-22,-14) scale(1,1)"><path fill="none" stroke="#000000" d="M 748.279541015625 42.36 L 748.279541015625 59.64" stroke-miterlimit="10"/></g><g transform="translate(-22,-14) scale(1,1)"><path fill="none" stroke="#000000" d="M 739.0897228338068 48.84 L 757.4693591974432 48.84" stroke-miterlimit="10"/></g><g transform="translate(-22,-14) scale(1,1)"><path fill="none" stroke="#000000" d="M 748.279541015625 59.64 L 735.5159046519886 77" stroke-miterlimit="10"/></g><g transform="translate(-22,-14) scale(1,1)"><path fill="none" stroke="#000000" d="M 748.279541015625 59.64 L 761.0431773792614 77" stroke-miterlimit="10"/></g><g transform="translate(-22,-14) scale(1,1)"><g><path fill="none" stroke="none"/><text fill="#000000" stroke="none" font-family="Arial" font-size="13px" font-style="normal" font-weight="bold" text-decoration="none" x="729.85546875" y="97.5">Admin</text></g></g><g transform="translate(-22,-14) scale(1,1)"><path fill="#C0C0C0" stroke="none" d="M 231 264 C 231 254.6111584 261.220776 247 298.5 247 C 335.779224 247 366 254.6111584 366 264 C 366 273.3888416 335.779224 281 298.5 281 C 261.220776 281 231 273.3888416 231 264 Z" opacity="0.2"/></g><g transform="translate(-22,-14) scale(1,1)"><path fill="#ffffff" stroke="none" d="M 224 257 C 224 247.6111584 254.220776 240 291.5 240 C 328.779224 240 359 247.6111584 359 257 C 359 266.3888416 328.779224 274 291.5 274 C 254.220776 274 224 266.3888416 224 257 Z"/></g><g transform="translate(-22,-14) scale(1,1)"><path fill="none" stroke="#000000" d="M 224 257 C 224 247.6111584 254.220776 240 291.5 240 C 328.779224 240 359 247.6111584 359 257 C 359 266.3888416 328.779224 274 291.5 274 C 254.220776 274 224 266.3888416 224 257 Z" stroke-miterlimit="10"/></g><g transform="translate(-22,-14) scale(1,1)"><g><path fill="none" stroke="none"/><text fill="#000000" stroke="none" font-family="Arial" font-size="13px" font-style="normal" font-weight="bold" text-decoration="none" x="256.095947265625" y="264">View tutorial</text></g></g><g transform="translate(-22,-14) scale(1,1)"><path fill="none" stroke="#000000" d="M 274 239 L 219 179" stroke-miterlimit="10"/></g><g transform="translate(-22,-14) scale(1,1)"><path fill="#C0C0C0" stroke="none" d="M 39 56 C 39 46.6111584 70.5639216 39 109.5 39 C 148.43607839999999 39 180 46.6111584 180 56 C 180 65.3888416 148.43607839999999 73 109.5 73 C 70.5639216 73 39 65.3888416 39 56 Z" opacity="0.2"/></g><g transform="translate(-22,-14) scale(1,1)"><path fill="#ffffff" stroke="none" d="M 32 49 C 32 39.6111584 63.5639216 32 102.5 32 C 141.43607839999999 32 173 39.6111584 173 49 C 173 58.3888416 141.43607839999999 66 102.5 66 C 63.5639216 66 32 58.3888416 32 49 Z"/></g><g transform="translate(-22,-14) scale(1,1)"><path fill="none" stroke="#000000" d="M 32 49 C 32 39.6111584 63.5639216 32 102.5 32 C 141.43607839999999 32 173 39.6111584 173 49 C 173 58.3888416 141.43607839999999 66 102.5 66 C 63.5639216 66 32 58.3888416 32 49 Z" stroke-miterlimit="10"/></g><g transform="translate(-22,-14) scale(1,1)"><g><path fill="none" stroke="none"/><text fill="#000000" stroke="none" font-family="Arial" font-size="13px" font-style="normal" font-weight="bold" text-decoration="none" x="60.589599609375" y="56">Search tutorial</text></g></g><g transform="translate(-22,-14) scale(1,1)"><path fill="none" stroke="#000000" d="M 711 79 L 333 239" stroke-miterlimit="10"/></g><g transform="translate(-22,-14) scale(1,1)"><path fill="none" stroke="#000000" d="M 93 536 L 278 275" stroke-miterlimit="10"/></g><g transform="translate(-22,-14) scale(1,1)"><path fill="none" stroke="#000000" d="M 167 122 L 118 67" stroke-miterlimit="10"/></g><g transform="translate(-22,-14) scale(1,1)"><path fill="none" stroke="#000000" d="M 711 62 L 174 51" stroke-miterlimit="10"/></g><g transform="translate(-22,-14) scale(1,1)"><path fill="#C0C0C0" stroke="none" d="M 703 408 C 703 398.6111584 731.6537728 391 767 391 C 802.3462272 391 831 398.6111584 831 408 C 831 417.3888416 802.3462272 425 767 425 C 731.6537728 425 703 417.3888416 703 408 Z" opacity="0.2"/></g><g transform="translate(-22,-14) scale(1,1)"><path fill="#ffffff" stroke="none" d="M 696 401 C 696 391.6111584 724.6537728 384 760 384 C 795.3462272 384 824 391.6111584 824 401 C 824 410.3888416 795.3462272 418 760 418 C 724.6537728 418 696 410.3888416 696 401 Z"/></g><g transform="translate(-22,-14) scale(1,1)"><path fill="none" stroke="#000000" d="M 696 401 C 696 391.6111584 724.6537728 384 760 384 C 795.3462272 384 824 391.6111584 824 401 C 824 410.3888416 795.3462272 418 760 418 C 724.6537728 418 696 410.3888416 696 401 Z" stroke-miterlimit="10"/></g><g transform="translate(-22,-14) scale(1,1)"><g><path fill="none" stroke="none"/><text fill="#000000" stroke="none" font-family="Arial" font-size="13px" font-style="normal" font-weight="bold" text-decoration="none" x="727.119140625" y="408">Add tutorial</text></g></g><g transform="translate(-22,-14) scale(1,1)"><path fill="#C0C0C0" stroke="none" d="M 343 296 C 343 286.6111584 368.743624 279 400.5 279 C 432.256376 279 458 286.6111584 458 296 C 458 305.3888416 432.256376 313 400.5 313 C 368.743624 313 343 305.3888416 343 296 Z" opacity="0.2"/></g><g transform="translate(-22,-14) scale(1,1)"><path fill="#ffffff" stroke="none" d="M 336 289 C 336 279.6111584 361.743624 272 393.5 272 C 425.256376 272 451 279.6111584 451 289 C 451 298.3888416 425.256376 306 393.5 306 C 361.743624 306 336 298.3888416 336 289 Z"/></g><g transform="translate(-22,-14) scale(1,1)"><path fill="none" stroke="#000000" d="M 336 289 C 336 279.6111584 361.743624 272 393.5 272 C 425.256376 272 451 279.6111584 451 289 C 451 298.3888416 425.256376 306 393.5 306 C 361.743624 306 336 298.3888416 336 289 Z" stroke-miterlimit="10"/></g><g transform="translate(-22,-14) scale(1,1)"><g><path fill="none" stroke="none"/><text fill="#000000" stroke="none" font-family="Arial" font-size="13px" font-style="normal" font-weight="bold" text-decoration="none" x="360.984130859375" y="296">Edit tutorial</text></g></g><g transform="translate(-22,-14) scale(1,1)"><path fill="#C0C0C0" stroke="none" d="M 551 352 C 551 342.6111584 587.936504 335 633.5 335 C 679.063496 335 716 342.6111584 716 352 C 716 361.3888416 679.063496 369 633.5 369 C 587.936504 369 551 361.3888416 551 352 Z" opacity="0.2"/></g><g transform="translate(-22,-14) scale(1,1)"><path fill="#ffffff" stroke="none" d="M 544 345 C 544 335.6111584 580.936504 328 626.5 328 C 672.063496 328 709 335.6111584 709 345 C 709 354.3888416 672.063496 362 626.5 362 C 580.936504 362 544 354.3888416 544 345 Z"/></g><g transform="translate(-22,-14) scale(1,1)"><path fill="none" stroke="#000000" d="M 544 345 C 544 335.6111584 580.936504 328 626.5 328 C 672.063496 328 709 335.6111584 709 345 C 709 354.3888416 672.063496 362 626.5 362 C 580.936504 362 544 354.3888416 544 345 Z" stroke-miterlimit="10"/></g><g transform="translate(-22,-14) scale(1,1)"><g><path fill="none" stroke="none"/><text fill="#000000" stroke="none" font-family="Arial" font-size="13px" font-style="normal" font-weight="bold" text-decoration="none" x="577.010498046875" y="352">Comment tutorial</text></g></g><g transform="translate(-22,-14) scale(1,1)"><path fill="#C0C0C0" stroke="none" d="M 303 136 C 303 126.6111584 329.862912 119 363 119 C 396.137088 119 423 126.6111584 423 136 C 423 145.3888416 396.137088 153 363 153 C 329.862912 153 303 145.3888416 303 136 Z" opacity="0.2"/></g><g transform="translate(-22,-14) scale(1,1)"><path fill="#ffffff" stroke="none" d="M 296 129 C 296 119.6111584 322.862912 112 356 112 C 389.137088 112 416 119.6111584 416 129 C 416 138.3888416 389.137088 146 356 146 C 322.862912 146 296 138.3888416 296 129 Z"/></g><g transform="translate(-22,-14) scale(1,1)"><path fill="none" stroke="#000000" d="M 296 129 C 296 119.6111584 322.862912 112 356 112 C 389.137088 112 416 119.6111584 416 129 C 416 138.3888416 389.137088 146 356 146 C 322.862912 146 296 138.3888416 296 129 Z" stroke-miterlimit="10"/></g><g transform="translate(-22,-14) scale(1,1)"><g><path fill="none" stroke="none"/><text fill="#000000" stroke="none" font-family="Arial" font-size="13px" font-style="normal" font-weight="bold" text-decoration="none" x="321.31640625" y="136">Registration</text></g></g><g transform="translate(-22,-14) scale(1,1)"><path fill="none" stroke="#000000" d="M 219 147 L 295 137" stroke-miterlimit="10"/></g><g transform="translate(-22,-14) scale(1,1)"><path fill="#C0C0C0" stroke="none" d="M 463 312 C 463 302.6111584 485.6096176 295 513.5 295 C 541.3903824 295 564 302.6111584 564 312 C 564 321.3888416 541.3903824 329 513.5 329 C 485.6096176 329 463 321.3888416 463 312 Z" opacity="0.2"/></g><g transform="translate(-22,-14) scale(1,1)"><path fill="#ffffff" stroke="none" d="M 456 305 C 456 295.6111584 478.6096176 288 506.5 288 C 534.3903824 288 557 295.6111584 557 305 C 557 314.3888416 534.3903824 322 506.5 322 C 478.6096176 322 456 314.3888416 456 305 Z"/></g><g transform="translate(-22,-14) scale(1,1)"><path fill="none" stroke="#000000" d="M 456 305 C 456 295.6111584 478.6096176 288 506.5 288 C 534.3903824 288 557 295.6111584 557 305 C 557 314.3888416 534.3903824 322 506.5 322 C 478.6096176 322 456 314.3888416 456 305 Z" stroke-miterlimit="10"/></g><g transform="translate(-22,-14) scale(1,1)"><g><path fill="none" stroke="none"/><text fill="#000000" stroke="none" font-family="Arial" font-size="13px" font-style="normal" font-weight="bold" text-decoration="none" x="490.595947265625" y="312">Login</text></g></g><g transform="translate(-22,-14) scale(1,1)"><path fill="none" stroke="#000000" d="M 93 564 L 582 363" stroke-miterlimit="10"/></g><g transform="translate(-22,-14) scale(1,1)"><path fill="none" stroke="#000000" d="M 93 568 L 695 417" stroke-miterlimit="10"/></g><g transform="translate(-22,-14) scale(1,1)"><path fill="none" stroke="#000000" d="M 93 551 L 372 307" stroke-miterlimit="10"/></g><g transform="translate(-22,-14) scale(1,1)"><path fill="none" stroke="#000000" d="M 711 87 L 421 271" stroke-miterlimit="10"/></g><g transform="translate(-22,-14) scale(1,1)"><path fill="none" stroke="#000000" d="M 711 100 L 524 287" stroke-miterlimit="10"/></g><g transform="translate(-22,-14) scale(1,1)"><path fill="none" stroke="#000000" d="M 749 104 L 759 383" stroke-miterlimit="10"/></g><g transform="translate(-22,-14) scale(1,1)"><path fill="none" stroke="#000000" d="M 730 104 L 634 327" stroke-miterlimit="10"/></g><g transform="translate(-22,-14) scale(1,1)"><path fill="none" stroke="#000000" d="M 93 558 L 477 323" stroke-miterlimit="10"/></g><g transform="translate(-22,-14) scale(1,1)"><path fill="none" stroke="#000000" d="M 68 535 L 101 67" stroke-miterlimit="10"/></g></g></svg>