<svg version="1.1" xmlns="http://www.w3.org/2000/svg" xmlns:xlink="http://www.w3.org/1999/xlink" width="796.45361328125" height="446"><defs/><g><g transform="translate(-14,-46) scale(1,1)"><rect fill="#C0C0C0" stroke="none" x="295" y="63" width="185.03173828125" height="90" opacity="0.2"/></g><g transform="translate(-14,-46) scale(1,1)"><rect fill="#ffffff" stroke="none" x="288" y="56" width="185.03173828125" height="90"/></g><g transform="translate(-14,-46) scale(1,1)"><path fill="none" stroke="#000000" d="M 288 56 L 473.03173828125 56 L 473.03173828125 146 L 288 146 L 288 56 Z Z" stroke-miterlimit="10"/></g><g transform="translate(-14,-46) scale(1,1)"><path fill="none" stroke="#000000" d="M 288 79 L 473.03173828125 79" stroke-miterlimit="10"/></g><g transform="translate(-14,-46) scale(1,1)"><path fill="none" stroke="#000000" d="M 316.05908203125 79 L 316.05908203125 146" stroke-miterlimit="10"/></g><g transform="translate(-14,-46) scale(1,1)"><path fill="none" stroke="#000000" d="M 399.03173828125 79 L 399.03173828125 146" stroke-miterlimit="10"/></g><g transform="translate(-14,-46) scale(1,1)"><g><path fill="none" stroke="none"/><text fill="#000000" stroke="none" font-family="Arial" font-size="13px" font-style="normal" font-weight="bold" text-decoration="none" x="358.841796875" y="73.5">Tutorial</text></g></g><g transform="translate(-14,-46) scale(1,1)"><g><path fill="none" stroke="none"/><text fill="#000000" stroke="none" font-family="Arial" font-size="13px" font-style="normal" font-weight="normal" text-decoration="none" x="293" y="97">PK</text></g></g><g transform="translate(-14,-46) scale(1,1)"><g><path fill="none" stroke="none"/><text fill="#000000" stroke="none" font-family="Arial" font-size="13px" font-style="normal" font-weight="normal" text-decoration="none" x="321.05908203125" y="97">id</text></g></g><g transform="translate(-14,-46) scale(1,1)"><g><path fill="none" stroke="none"/><text fill="#000000" stroke="none" font-family="Arial" font-size="13px" font-style="normal" font-weight="normal" text-decoration="none" x="404.03173828125" y="97">INTEGER</text></g></g><g transform="translate(-14,-46) scale(1,1)"><g><path fill="none" stroke="none"/><text fill="#000000" stroke="none" font-family="Arial" font-size="13px" font-style="normal" font-weight="normal" text-decoration="none" x="293" y="112"></text></g></g><g transform="translate(-14,-46) scale(1,1)"><g><path fill="none" stroke="none"/><text fill="#000000" stroke="none" font-family="Arial" font-size="13px" font-style="normal" font-weight="normal" text-decoration="none" x="321.05908203125" y="112">title</text></g></g><g transform="translate(-14,-46) scale(1,1)"><g><path fill="none" stroke="none"/><text fill="#000000" stroke="none" font-family="Arial" font-size="13px" font-style="normal" font-weight="normal" text-decoration="none" x="404.03173828125" y="112">VARCHAR</text></g></g><g transform="translate(-14,-46) scale(1,1)"><g><path fill="none" stroke="none"/><text fill="#000000" stroke="none" font-family="Arial" font-size="13px" font-style="normal" font-weight="normal" text-decoration="none" x="293" y="127">FK</text></g></g><g transform="translate(-14,-46) scale(1,1)"><g><path fill="none" stroke="none"/><text fill="#000000" stroke="none" font-family="Arial" font-size="13px" font-style="normal" font-weight="normal" text-decoration="none" x="321.05908203125" y="127">category_id</text></g></g><g transform="translate(-14,-46) scale(1,1)"><g><path fill="none" stroke="none"/><text fill="#000000" stroke="none" font-family="Arial" font-size="13px" font-style="normal" font-weight="normal" text-decoration="none" x="404.03173828125" y="127">INTEGER</text></g></g><g transform="translate(-14,-46) scale(1,1)"><g><path fill="none" stroke="none"/><text fill="#000000" stroke="none" font-family="Arial" font-size="13px" font-style="normal" font-weight="normal" text-decoration="none" x="293" y="142">FK</text></g></g><g transform="translate(-14,-46) scale(1,1)"><g><path fill="none" stroke="none"/><text fill="#000000" stroke="none" font-family="Arial" font-size="13px" font-style="normal" font-weight="normal" text-decoration="none" x="321.05908203125" y="142">author_id</text></g></g><g transform="translate(-14,-46) scale(1,1)"><g><path fill="none" stroke="none"/><text fill="#000000" stroke="none" font-family="Arial" font-size="13px" font-style="normal" font-weight="normal" text-decoration="none" x="404.03173828125" y="142">INTEGER</text></g></g><g transform="translate(-14,-46) scale(1,1)"><rect fill="#C0C0C0" stroke="none" x="319" y="399" width="174.89453125" height="90" opacity="0.2"/></g><g transform="translate(-14,-46) scale(1,1)"><rect fill="#ffffff" stroke="none" x="312" y="392" width="174.89453125" height="90"/></g><g transform="translate(-14,-46) scale(1,1)"><path fill="none" stroke="#000000" d="M 312 392 L 486.89453125 392 L 486.89453125 482 L 312 482 L 312 392 Z Z" stroke-miterlimit="10"/></g><g transform="translate(-14,-46) scale(1,1)"><path fill="none" stroke="#000000" d="M 312 415 L 486.89453125 415" stroke-miterlimit="10"/></g><g transform="translate(-14,-46) scale(1,1)"><path fill="none" stroke="#000000" d="M 340.05908203125 415 L 340.05908203125 482" stroke-miterlimit="10"/></g><g transform="translate(-14,-46) scale(1,1)"><path fill="none" stroke="#000000" d="M 412.89453125 415 L 412.89453125 482" stroke-miterlimit="10"/></g><g transform="translate(-14,-46) scale(1,1)"><g><path fill="none" stroke="none"/><text fill="#000000" stroke="none" font-family="Arial" font-size="13px" font-style="normal" font-weight="bold" text-decoration="none" x="377.766845703125" y="409.5">Section</text></g></g><g transform="translate(-14,-46) scale(1,1)"><g><path fill="none" stroke="none"/><text fill="#000000" stroke="none" font-family="Arial" font-size="13px" font-style="normal" font-weight="normal" text-decoration="none" x="317" y="433">PK</text></g></g><g transform="translate(-14,-46) scale(1,1)"><g><path fill="none" stroke="none"/><text fill="#000000" stroke="none" font-family="Arial" font-size="13px" font-style="normal" font-weight="normal" text-decoration="none" x="345.05908203125" y="433">id</text></g></g><g transform="translate(-14,-46) scale(1,1)"><g><path fill="none" stroke="none"/><text fill="#000000" stroke="none" font-family="Arial" font-size="13px" font-style="normal" font-weight="normal" text-decoration="none" x="417.89453125" y="433">INTEGER</text></g></g><g transform="translate(-14,-46) scale(1,1)"><g><path fill="none" stroke="none"/><text fill="#000000" stroke="none" font-family="Arial" font-size="13px" font-style="normal" font-weight="normal" text-decoration="none" x="317" y="448">FK</text></g></g><g transform="translate(-14,-46) scale(1,1)"><g><path fill="none" stroke="none"/><text fill="#000000" stroke="none" font-family="Arial" font-size="13px" font-style="normal" font-weight="normal" text-decoration="none" x="345.05908203125" y="448">tutorial_id</text></g></g><g transform="translate(-14,-46) scale(1,1)"><g><path fill="none" stroke="none"/><text fill="#000000" stroke="none" font-family="Arial" font-size="13px" font-style="normal" font-weight="normal" text-decoration="none" x="417.89453125" y="448"></text></g></g><g transform="translate(-14,-46) scale(1,1)"><g><path fill="none" stroke="none"/><text fill="#000000" stroke="none" font-family="Arial" font-size="13px" font-style="normal" font-weight="normal" text-decoration="none" x="317" y="463"></text></g></g><g transform="translate(-14,-46) scale(1,1)"><g><path fill="none" stroke="none"/><text fill="#000000" stroke="none" font-family="Arial" font-size="13px" font-style="normal" font-weight="normal" text-decoration="none" x="345.05908203125" y="463">title</text></g></g><g transform="translate(-14,-46) scale(1,1)"><g><path fill="none" stroke="none"/><text fill="#000000" stroke="none" font-family="Arial" font-size="13px" font-style="normal" font-weight="normal" text-decoration="none" x="417.89453125" y="463">VARCHAR</text></g></g><g transform="translate(-14,-46) scale(1,1)"><g><path fill="none" stroke="none"/><text fill="#000000" stroke="none" font-family="Arial" font-size="13px" font-style="normal" font-weight="normal" text-decoration="none" x="317" y="478"></text></g></g><g transform="translate(-14,-46) scale(1,1)"><g><path fill="none" stroke="none"/><text fill="#000000" stroke="none" font-family="Arial" font-size="13px" font-style="normal" font-weight="normal" text-decoration="none" x="345.05908203125" y="478">content</text></g></g><g transform="translate(-14,-46) scale(1,1)"><g><path fill="none" stroke="none"/><text fill="#000000" stroke="none" font-family="Arial" font-size="13px" font-style="normal" font-weight="normal" text-decoration="none" x="417.89453125" y="478">TEXT</text></g></g><g transform="translate(-14,-46) scale(1,1)"><path fill="none" stroke="#000000" d="M 403 146 L 403 392" stroke-miterlimit="10"/></g><g transform="translate(-14,-46) scale(1,1)"><path fill="none" stroke="#000000" d="M 403 378 L 396 392" stroke-miterlimit="10"/></g><g transform="translate(-14,-46) scale(1,1)"><path fill="none" stroke="#000000" d="M 403 378 L 410 392" stroke-miterlimit="10"/></g><g transform="translate(-14,-46) scale(1,1)"><path fill="#FFFFFF" stroke="none" d="M 396 370 C 396 366.1340064 399.1340064 363 403 363 C 406.8659936 363 410 366.1340064 410 370 C 410 373.8659936 406.8659936 377 403 377 C 399.1340064 377 396 373.8659936 396 370 Z"/></g><g transform="translate(-14,-46) scale(1,1)"><path fill="none" stroke="#000000" d="M 396 370 C 396 366.1340064 399.1340064 363 403 363 C 406.8659936 363 410 366.1340064 410 370 C 410 373.8659936 406.8659936 377 403 377 C 399.1340064 377 396 373.8659936 396 370 Z" stroke-miterlimit="10"/></g><g transform="translate(-14,-46) scale(1,1)"><path fill="none" stroke="#000000" d="M 410 153 L 396 153" stroke-miterlimit="10"/></g><g transform="translate(-14,-46) scale(1,1)"><g><path fill="none" stroke="none"/><text fill="#000000" stroke="none" font-family="Arial" font-size="13px" font-style="normal" font-weight="normal" text-decoration="none" x="366" y="275">fk_section_tutorial</text></g></g><g transform="translate(-14,-46) scale(1,1)"><g><path fill="none" stroke="none"/><text fill="#000000" stroke="none" font-family="Arial" font-size="13px" font-style="normal" font-weight="normal" text-decoration="none" x="418" y="178"></text></g></g><g transform="translate(-14,-46) scale(1,1)"><g><path fill="none" stroke="none"/><text fill="#000000" stroke="none" font-family="Arial" font-size="13px" font-style="normal" font-weight="normal" text-decoration="none" x="390" y="373">tutorial_id</text></g></g><g transform="translate(-14,-46) scale(1,1)"><rect fill="#C0C0C0" stroke="none" x="647" y="295" width="160.45361328125" height="60" opacity="0.2"/></g><g transform="translate(-14,-46) scale(1,1)"><rect fill="#ffffff" stroke="none" x="640" y="288" width="160.45361328125" height="60"/></g><g transform="translate(-14,-46) scale(1,1)"><path fill="none" stroke="#000000" d="M 640 288 L 800.45361328125 288 L 800.45361328125 348 L 640 348 L 640 288 Z Z" stroke-miterlimit="10"/></g><g transform="translate(-14,-46) scale(1,1)"><path fill="none" stroke="#000000" d="M 640 311 L 800.45361328125 311" stroke-miterlimit="10"/></g><g transform="translate(-14,-46) scale(1,1)"><path fill="none" stroke="#000000" d="M 668.05908203125 311 L 668.05908203125 348" stroke-miterlimit="10"/></g><g transform="translate(-14,-46) scale(1,1)"><path fill="none" stroke="#000000" d="M 701.1708984375 311 L 701.1708984375 348" stroke-miterlimit="10"/></g><g transform="translate(-14,-46) scale(1,1)"><g><path fill="none" stroke="none"/><text fill="#000000" stroke="none" font-family="Arial" font-size="13px" font-style="normal" font-weight="bold" text-decoration="none" x="693.852294921875" y="305.5">Category</text></g></g><g transform="translate(-14,-46) scale(1,1)"><g><path fill="none" stroke="none"/><text fill="#000000" stroke="none" font-family="Arial" font-size="13px" font-style="normal" font-weight="normal" text-decoration="none" x="645" y="329">PK</text></g></g><g transform="translate(-14,-46) scale(1,1)"><g><path fill="none" stroke="none"/><text fill="#000000" stroke="none" font-family="Arial" font-size="13px" font-style="normal" font-weight="normal" text-decoration="none" x="673.05908203125" y="329">id</text></g></g><g transform="translate(-14,-46) scale(1,1)"><g><path fill="none" stroke="none"/><text fill="#000000" stroke="none" font-family="Arial" font-size="13px" font-style="normal" font-weight="normal" text-decoration="none" x="706.1708984375" y="329">INTEGER</text></g></g><g transform="translate(-14,-46) scale(1,1)"><g><path fill="none" stroke="none"/><text fill="#000000" stroke="none" font-family="Arial" font-size="13px" font-style="normal" font-weight="normal" text-decoration="none" x="645" y="344"></text></g></g><g transform="translate(-14,-46) scale(1,1)"><g><path fill="none" stroke="none"/><text fill="#000000" stroke="none" font-family="Arial" font-size="13px" font-style="normal" font-weight="normal" text-decoration="none" x="673.05908203125" y="344">title</text></g></g><g transform="translate(-14,-46) scale(1,1)"><g><path fill="none" stroke="none"/><text fill="#000000" stroke="none" font-family="Arial" font-size="13px" font-style="normal" font-weight="normal" text-decoration="none" x="706.1708984375" y="344">VARCHAR</text></g></g><g transform="translate(-14,-46) scale(1,1)"><path fill="none" stroke="#000000" d="M 473 111 L 712 111 M 712 111 A 8 8 0 0 1 720 119 L 720 288" stroke-miterlimit="10"/></g><g transform="translate(-14,-46) scale(1,1)"><path fill="none" stroke="#000000" d="M 713 281 L 727 281" stroke-miterlimit="10"/></g><g transform="translate(-14,-46) scale(1,1)"><path fill="none" stroke="#000000" d="M 487 111 L 473 104" stroke-miterlimit="10"/></g><g transform="translate(-14,-46) scale(1,1)"><path fill="none" stroke="#000000" d="M 487 111 L 473 118" stroke-miterlimit="10"/></g><g transform="translate(-14,-46) scale(1,1)"><path fill="#FFFFFF" stroke="none" d="M 488 111 C 488 107.1340064 491.1340064 104 495 104 C 498.8659936 104 502 107.1340064 502 111 C 502 114.8659936 498.8659936 118 495 118 C 491.1340064 118 488 114.8659936 488 111 Z"/></g><g transform="translate(-14,-46) scale(1,1)"><path fill="none" stroke="#000000" d="M 488 111 C 488 107.1340064 491.1340064 104 495 104 C 498.8659936 104 502 107.1340064 502 111 C 502 114.8659936 498.8659936 118 495 118 C 491.1340064 118 488 114.8659936 488 111 Z" stroke-miterlimit="10"/></g><g transform="translate(-14,-46) scale(1,1)"><g><path fill="none" stroke="none"/><text fill="#000000" stroke="none" font-family="Arial" font-size="13px" font-style="normal" font-weight="normal" text-decoration="none" x="679" y="117">fk_tutorial_category</text></g></g><g transform="translate(-14,-46) scale(1,1)"><g><path fill="none" stroke="none"/><text fill="#000000" stroke="none" font-family="Arial" font-size="13px" font-style="normal" font-weight="normal" text-decoration="none" x="465" y="103">category_id</text></g></g><g transform="translate(-14,-46) scale(1,1)"><g><path fill="none" stroke="none"/><text fill="#000000" stroke="none" font-family="Arial" font-size="13px" font-style="normal" font-weight="normal" text-decoration="none" x="735" y="269"></text></g></g><g transform="translate(-14,-46) scale(1,1)"><rect fill="#C0C0C0" stroke="none" x="31" y="175" width="173.47900390625" height="150" opacity="0.2"/></g><g transform="translate(-14,-46) scale(1,1)"><rect fill="#ffffff" stroke="none" x="24" y="168" width="173.47900390625" height="150"/></g><g transform="translate(-14,-46) scale(1,1)"><path fill="none" stroke="#000000" d="M 24 168 L 197.47900390625 168 L 197.47900390625 318 L 24 318 L 24 168 Z Z" stroke-miterlimit="10"/></g><g transform="translate(-14,-46) scale(1,1)"><path fill="none" stroke="#000000" d="M 24 191 L 197.47900390625 191" stroke-miterlimit="10"/></g><g transform="translate(-14,-46) scale(1,1)"><path fill="none" stroke="#000000" d="M 52.05908203125 191 L 52.05908203125 318" stroke-miterlimit="10"/></g><g transform="translate(-14,-46) scale(1,1)"><path fill="none" stroke="#000000" d="M 123.47900390625 191 L 123.47900390625 318" stroke-miterlimit="10"/></g><g transform="translate(-14,-46) scale(1,1)"><g><path fill="none" stroke="none"/><text fill="#000000" stroke="none" font-family="Arial" font-size="13px" font-style="normal" font-weight="bold" text-decoration="none" x="97.015869140625" y="185.5">User</text></g></g><g transform="translate(-14,-46) scale(1,1)"><g><path fill="none" stroke="none"/><text fill="#000000" stroke="none" font-family="Arial" font-size="13px" font-style="normal" font-weight="normal" text-decoration="none" x="29" y="209">PK</text></g></g><g transform="translate(-14,-46) scale(1,1)"><g><path fill="none" stroke="none"/><text fill="#000000" stroke="none" font-family="Arial" font-size="13px" font-style="normal" font-weight="normal" text-decoration="none" x="57.05908203125" y="209">id</text></g></g><g transform="translate(-14,-46) scale(1,1)"><g><path fill="none" stroke="none"/><text fill="#000000" stroke="none" font-family="Arial" font-size="13px" font-style="normal" font-weight="normal" text-decoration="none" x="128.47900390625" y="209">INTEGER</text></g></g><g transform="translate(-14,-46) scale(1,1)"><g><path fill="none" stroke="none"/><text fill="#000000" stroke="none" font-family="Arial" font-size="13px" font-style="normal" font-weight="normal" text-decoration="none" x="29" y="224"></text></g></g><g transform="translate(-14,-46) scale(1,1)"><g><path fill="none" stroke="none"/><text fill="#000000" stroke="none" font-family="Arial" font-size="13px" font-style="normal" font-weight="normal" text-decoration="none" x="57.05908203125" y="224">is_super</text></g></g><g transform="translate(-14,-46) scale(1,1)"><g><path fill="none" stroke="none"/><text fill="#000000" stroke="none" font-family="Arial" font-size="13px" font-style="normal" font-weight="normal" text-decoration="none" x="128.47900390625" y="224">BOOLEAN</text></g></g><g transform="translate(-14,-46) scale(1,1)"><g><path fill="none" stroke="none"/><text fill="#000000" stroke="none" font-family="Arial" font-size="13px" font-style="normal" font-weight="normal" text-decoration="none" x="29" y="239"></text></g></g><g transform="translate(-14,-46) scale(1,1)"><g><path fill="none" stroke="none"/><text fill="#000000" stroke="none" font-family="Arial" font-size="13px" font-style="normal" font-weight="normal" text-decoration="none" x="57.05908203125" y="239">email</text></g></g><g transform="translate(-14,-46) scale(1,1)"><g><path fill="none" stroke="none"/><text fill="#000000" stroke="none" font-family="Arial" font-size="13px" font-style="normal" font-weight="normal" text-decoration="none" x="128.47900390625" y="239">VARCHAR</text></g></g><g transform="translate(-14,-46) scale(1,1)"><g><path fill="none" stroke="none"/><text fill="#000000" stroke="none" font-family="Arial" font-size="13px" font-style="normal" font-weight="normal" text-decoration="none" x="29" y="254"></text></g></g><g transform="translate(-14,-46) scale(1,1)"><g><path fill="none" stroke="none"/><text fill="#000000" stroke="none" font-family="Arial" font-size="13px" font-style="normal" font-weight="normal" text-decoration="none" x="57.05908203125" y="254">username</text></g></g><g transform="translate(-14,-46) scale(1,1)"><g><path fill="none" stroke="none"/><text fill="#000000" stroke="none" font-family="Arial" font-size="13px" font-style="normal" font-weight="normal" text-decoration="none" x="128.47900390625" y="254">VARCHAR</text></g></g><g transform="translate(-14,-46) scale(1,1)"><g><path fill="none" stroke="none"/><text fill="#000000" stroke="none" font-family="Arial" font-size="13px" font-style="normal" font-weight="normal" text-decoration="none" x="29" y="269"></text></g></g><g transform="translate(-14,-46) scale(1,1)"><g><path fill="none" stroke="none"/><text fill="#000000" stroke="none" font-family="Arial" font-size="13px" font-style="normal" font-weight="normal" text-decoration="none" x="57.05908203125" y="269">password</text></g></g><g transform="translate(-14,-46) scale(1,1)"><g><path fill="none" stroke="none"/><text fill="#000000" stroke="none" font-family="Arial" font-size="13px" font-style="normal" font-weight="normal" text-decoration="none" x="128.47900390625" y="269">VARCHAR</text></g></g><g transform="translate(-14,-46) scale(1,1)"><g><path fill="none" stroke="none"/><text fill="#000000" stroke="none" font-family="Arial" font-size="13px" font-style="normal" font-weight="normal" text-decoration="none" x="29" y="284"></text></g></g><g transform="translate(-14,-46) scale(1,1)"><g><path fill="none" stroke="none"/><text fill="#000000" stroke="none" font-family="Arial" font-size="13px" font-style="normal" font-weight="normal" text-decoration="none" x="57.05908203125" y="284">name</text></g></g><g transform="translate(-14,-46) scale(1,1)"><g><path fill="none" stroke="none"/><text fill="#000000" stroke="none" font-family="Arial" font-size="13px" font-style="normal" font-weight="normal" text-decoration="none" x="128.47900390625" y="284">VARCHAR</text></g></g><g transform="translate(-14,-46) scale(1,1)"><g><path fill="none" stroke="none"/><text fill="#000000" stroke="none" font-family="Arial" font-size="13px" font-style="normal" font-weight="normal" text-decoration="none" x="29" y="299"></text></g></g><g transform="translate(-14,-46) scale(1,1)"><g><path fill="none" stroke="none"/><text fill="#000000" stroke="none" font-family="Arial" font-size="13px" font-style="normal" font-weight="normal" text-decoration="none" x="57.05908203125" y="299">surname</text></g></g><g transform="translate(-14,-46) scale(1,1)"><g><path fill="none" stroke="none"/><text fill="#000000" stroke="none" font-family="Arial" font-size="13px" font-style="normal" font-weight="normal" text-decoration="none" x="128.47900390625" y="299">VARCHAR</text></g></g><g transform="translate(-14,-46) scale(1,1)"><path fill="none" stroke="#000000" d="M 86 168 L 86 112 M 86 112 A 8 8 0 0 1 94 104 L 288 104" stroke-miterlimit="10"/></g><g transform="translate(-14,-46) scale(1,1)"><path fill="none" stroke="#000000" d="M 274 104 L 288 111" stroke-miterlimit="10"/></g><g transform="translate(-14,-46) scale(1,1)"><path fill="none" stroke="#000000" d="M 274 104 L 288 97" stroke-miterlimit="10"/></g><g transform="translate(-14,-46) scale(1,1)"><path fill="#FFFFFF" stroke="none" d="M 259 104 C 259 100.1340064 262.1340064 97 266 97 C 269.8659936 97 273 100.1340064 273 104 C 273 107.8659936 269.8659936 111 266 111 C 262.1340064 111 259 107.8659936 259 104 Z"/></g><g transform="translate(-14,-46) scale(1,1)"><path fill="none" stroke="#000000" d="M 259 104 C 259 100.1340064 262.1340064 97 266 97 C 269.8659936 97 273 100.1340064 273 104 C 273 107.8659936 269.8659936 111 266 111 C 262.1340064 111 259 107.8659936 259 104 Z" stroke-miterlimit="10"/></g><g transform="translate(-14,-46) scale(1,1)"><path fill="none" stroke="#000000" d="M 79 161 L 93 161" stroke-miterlimit="10"/></g><g transform="translate(-14,-46) scale(1,1)"><g><path fill="none" stroke="none"/><text fill="#000000" stroke="none" font-family="Arial" font-size="13px" font-style="normal" font-weight="normal" text-decoration="none" x="42" y="96">fk_tutorial_user</text></g></g><g transform="translate(-14,-46) scale(1,1)"><g><path fill="none" stroke="none"/><text fill="#000000" stroke="none" font-family="Arial" font-size="13px" font-style="normal" font-weight="normal" text-decoration="none" x="71" y="149"></text></g></g><g transform="translate(-14,-46) scale(1,1)"><g><path fill="none" stroke="none"/><text fill="#000000" stroke="none" font-family="Arial" font-size="13px" font-style="normal" font-weight="normal" text-decoration="none" x="241" y="96">user_id</text></g></g></g></svg>