<svg version="1.1" xmlns="http://www.w3.org/2000/svg" xmlns:xlink="http://www.w3.org/1999/xlink" width="636" height="532"><defs/><g><g transform="translate(-6,-38) scale(1,1)"><path fill="#C0C0C0" stroke="none" d="M 391 321 L 628 321 L 628 566 L 391 566" opacity="0.2"/></g><g transform="translate(-6,-38) scale(1,1)"><path fill="#C0C0C0" stroke="none" d="M 391 321 L 401 311 L 638 311 L 628 321" opacity="0.2"/></g><g transform="translate(-6,-38) scale(1,1)"><path fill="#C0C0C0" stroke="none" d="M 638 311 L 628 321 L 628 566 L 638 556" opacity="0.2"/></g><g transform="translate(-6,-38) scale(1,1)"><path fill="#ffffff" stroke="none" d="M 384 314 L 621 314 L 621 559 L 384 559"/></g><g transform="translate(-6,-38) scale(1,1)"><path fill="#ffffff" stroke="none" d="M 384 314 L 394 304 L 631 304 L 621 314"/></g><g transform="translate(-6,-38) scale(1,1)"><path fill="#ffffff" stroke="none" d="M 631 304 L 621 314 L 621 559 L 631 549"/></g><g transform="translate(-6,-38) scale(1,1)"><path fill="none" stroke="#000000" d="M 384 314 L 621 314 L 621 559 L 384 559 L 384 314" stroke-miterlimit="10"/></g><g transform="translate(-6,-38) scale(1,1)"><path fill="none" stroke="#000000" d="M 384 314 L 394 304 L 631 304 L 621 314 L 384 314" stroke-miterlimit="10"/></g><g transform="translate(-6,-38) scale(1,1)"><path fill="none" stroke="#000000" d="M 631 304 L 621 314 L 621 559 L 631 549 L 631 304" stroke-miterlimit="10"/></g><g transform="translate(-6,-38) scale(1,1)"><path fill="none" stroke="#000000" d="M 384 339 L 622 339" stroke-miterlimit="10"/></g><g transform="translate(-6,-38) scale(1,1)"><path fill="none" stroke="#000000" d="M 384 349 L 622 349" stroke-miterlimit="10"/></g><g transform="translate(-6,-38) scale(1,1)"><g><path fill="none" stroke="none"/><text fill="#000000" stroke="none" font-family="Arial" font-size="13px" font-style="normal" font-weight="bold" text-decoration="none" x="473.02001953125" y="333.5">DB Server</text></g></g><g transform="translate(-6,-38) scale(1,1)"><path fill="#C0C0C0" stroke="none" d="M 47 65 L 212 65 L 212 214 L 47 214" opacity="0.2"/></g><g transform="translate(-6,-38) scale(1,1)"><path fill="#C0C0C0" stroke="none" d="M 47 65 L 57 55 L 222 55 L 212 65" opacity="0.2"/></g><g transform="translate(-6,-38) scale(1,1)"><path fill="#C0C0C0" stroke="none" d="M 222 55 L 212 65 L 212 214 L 222 204" opacity="0.2"/></g><g transform="translate(-6,-38) scale(1,1)"><path fill="#ffffff" stroke="none" d="M 40 58 L 205 58 L 205 207 L 40 207"/></g><g transform="translate(-6,-38) scale(1,1)"><path fill="#ffffff" stroke="none" d="M 40 58 L 50 48 L 215 48 L 205 58"/></g><g transform="translate(-6,-38) scale(1,1)"><path fill="#ffffff" stroke="none" d="M 215 48 L 205 58 L 205 207 L 215 197"/></g><g transform="translate(-6,-38) scale(1,1)"><path fill="none" stroke="#000000" d="M 40 58 L 205 58 L 205 207 L 40 207 L 40 58" stroke-miterlimit="10"/></g><g transform="translate(-6,-38) scale(1,1)"><path fill="none" stroke="#000000" d="M 40 58 L 50 48 L 215 48 L 205 58 L 40 58" stroke-miterlimit="10"/></g><g transform="translate(-6,-38) scale(1,1)"><path fill="none" stroke="#000000" d="M 215 48 L 205 58 L 205 207 L 215 197 L 215 48" stroke-miterlimit="10"/></g><g transform="translate(-6,-38) scale(1,1)"><path fill="none" stroke="#000000" d="M 40 83 L 206 83" stroke-miterlimit="10"/></g><g transform="translate(-6,-38) scale(1,1)"><g><path fill="none" stroke="none"/><text fill="#000000" stroke="none" font-family="Arial" font-size="13px" font-style="normal" font-weight="bold" text-decoration="none" x="103.1318359375" y="77.5">Device</text></g></g><g transform="translate(-6,-38) scale(1,1)"><rect fill="#C0C0C0" stroke="none" x="81" y="119" width="100.62451171875" height="44" opacity="0.2"/></g><g transform="translate(-6,-38) scale(1,1)"><rect fill="#ffffff" stroke="none" x="74" y="112" width="100.62451171875" height="44"/></g><g transform="translate(-6,-38) scale(1,1)"><path fill="none" stroke="#000000" d="M 74 112 L 174.62451171875 112 L 174.62451171875 156 L 74 156 L 74 112 Z Z" stroke-miterlimit="10"/></g><g transform="translate(-6,-38) scale(1,1)"><rect fill="#ffffff" stroke="none" x="64" y="119" width="20" height="10"/></g><g transform="translate(-6,-38) scale(1,1)"><path fill="none" stroke="#000000" d="M 64 119 L 84 119 L 84 129 L 64 129 L 64 119 Z Z" stroke-miterlimit="10"/></g><g transform="translate(-6,-38) scale(1,1)"><rect fill="#ffffff" stroke="none" x="64" y="139" width="20" height="10"/></g><g transform="translate(-6,-38) scale(1,1)"><path fill="none" stroke="#000000" d="M 64 139 L 84 139 L 84 149 L 64 149 L 64 139 Z Z" stroke-miterlimit="10"/></g><g transform="translate(-6,-38) scale(1,1)"><g><path fill="none" stroke="none"/><text fill="#000000" stroke="none" font-family="Arial" font-size="13px" font-style="normal" font-weight="bold" text-decoration="none" x="91.023193359375" y="131.5">Web browser</text></g></g><g transform="translate(-6,-38) scale(1,1)"><g><path fill="none" stroke="none"/><text fill="#000000" stroke="none" font-family="Arial" font-size="13px" font-style="normal" font-weight="normal" text-decoration="none" x="90.30908203125" y="146.5">(from Device)</text></g></g><g transform="translate(-6,-38) scale(1,1)"><rect fill="#C0C0C0" stroke="none" x="425" y="471" width="178.70703125" height="77" opacity="0.2"/></g><g transform="translate(-6,-38) scale(1,1)"><rect fill="#ffffff" stroke="none" x="418" y="464" width="178.70703125" height="77"/></g><g transform="translate(-6,-38) scale(1,1)"><path fill="none" stroke="#000000" d="M 418 464 L 596.70703125 464 L 596.70703125 541 L 418 541 L 418 464 Z Z" stroke-miterlimit="10"/></g><g transform="translate(-6,-38) scale(1,1)"><rect fill="#ffffff" stroke="none" x="408" y="471" width="20" height="10"/></g><g transform="translate(-6,-38) scale(1,1)"><path fill="none" stroke="#000000" d="M 408 471 L 428 471 L 428 481 L 408 481 L 408 471 Z Z" stroke-miterlimit="10"/></g><g transform="translate(-6,-38) scale(1,1)"><rect fill="#ffffff" stroke="none" x="408" y="491" width="20" height="10"/></g><g transform="translate(-6,-38) scale(1,1)"><path fill="none" stroke="#000000" d="M 408 491 L 428 491 L 428 501 L 408 501 L 408 491 Z Z" stroke-miterlimit="10"/></g><g transform="translate(-6,-38) scale(1,1)"><path fill="none" stroke="#000000" d="M 428 517 L 596.70703125 517" stroke-miterlimit="10"/></g><g transform="translate(-6,-38) scale(1,1)"><g><path fill="none" stroke="none"/><text fill="#000000" stroke="none" font-family="Arial" font-size="13px" font-style="normal" font-weight="normal" text-decoration="none" x="481.278564453125" y="481.5">«Schema»</text></g></g><g transform="translate(-6,-38) scale(1,1)"><g><path fill="none" stroke="none"/><text fill="#000000" stroke="none" font-family="Arial" font-size="13px" font-style="normal" font-weight="bold" text-decoration="none" x="464.669921875" y="496.5">Tutorials4life DB</text></g></g><g transform="translate(-6,-38) scale(1,1)"><g><path fill="none" stroke="none"/><text fill="#000000" stroke="none" font-family="Arial" font-size="13px" font-style="normal" font-weight="normal" text-decoration="none" x="463.238525390625" y="511.5">(from DB Server)</text></g></g><g transform="translate(-6,-38) scale(1,1)"><g><path fill="none" stroke="none"/><text fill="#000000" stroke="none" font-family="Arial" font-size="13px" font-style="normal" font-weight="normal" text-decoration="none" x="433" y="534.5">«vendor»+name = MySQL</text></g></g><g transform="translate(-6,-38) scale(1,1)"><path fill="#C0C0C0" stroke="none" d="M 23 329 L 236 329 L 236 566 L 23 566" opacity="0.2"/></g><g transform="translate(-6,-38) scale(1,1)"><path fill="#C0C0C0" stroke="none" d="M 23 329 L 33 319 L 246 319 L 236 329" opacity="0.2"/></g><g transform="translate(-6,-38) scale(1,1)"><path fill="#C0C0C0" stroke="none" d="M 246 319 L 236 329 L 236 566 L 246 556" opacity="0.2"/></g><g transform="translate(-6,-38) scale(1,1)"><path fill="#ffffff" stroke="none" d="M 16 322 L 229 322 L 229 559 L 16 559"/></g><g transform="translate(-6,-38) scale(1,1)"><path fill="#ffffff" stroke="none" d="M 16 322 L 26 312 L 239 312 L 229 322"/></g><g transform="translate(-6,-38) scale(1,1)"><path fill="#ffffff" stroke="none" d="M 239 312 L 229 322 L 229 559 L 239 549"/></g><g transform="translate(-6,-38) scale(1,1)"><path fill="none" stroke="#000000" d="M 16 322 L 229 322 L 229 559 L 16 559 L 16 322" stroke-miterlimit="10"/></g><g transform="translate(-6,-38) scale(1,1)"><path fill="none" stroke="#000000" d="M 16 322 L 26 312 L 239 312 L 229 322 L 16 322" stroke-miterlimit="10"/></g><g transform="translate(-6,-38) scale(1,1)"><path fill="none" stroke="#000000" d="M 239 312 L 229 322 L 229 559 L 239 549 L 239 312" stroke-miterlimit="10"/></g><g transform="translate(-6,-38) scale(1,1)"><g><path fill="none" stroke="none"/><text fill="#000000" stroke="none" font-family="Arial" font-size="13px" font-style="normal" font-weight="bold" text-decoration="none" x="70.2509765625" y="341.5">Application Server</text></g></g><g transform="translate(-6,-38) scale(1,1)"><rect fill="#C0C0C0" stroke="none" x="65" y="359" width="162.76806640625" height="44" opacity="0.2"/></g><g transform="translate(-6,-38) scale(1,1)"><rect fill="#ffffff" stroke="none" x="58" y="352" width="162.76806640625" height="44"/></g><g transform="translate(-6,-38) scale(1,1)"><path fill="none" stroke="#000000" d="M 58 352 L 220.76806640625 352 L 220.76806640625 396 L 58 396 L 58 352 Z Z" stroke-miterlimit="10"/></g><g transform="translate(-6,-38) scale(1,1)"><rect fill="#ffffff" stroke="none" x="48" y="359" width="20" height="10"/></g><g transform="translate(-6,-38) scale(1,1)"><path fill="none" stroke="#000000" d="M 48 359 L 68 359 L 68 369 L 48 369 L 48 359 Z Z" stroke-miterlimit="10"/></g><g transform="translate(-6,-38) scale(1,1)"><rect fill="#ffffff" stroke="none" x="48" y="379" width="20" height="10"/></g><g transform="translate(-6,-38) scale(1,1)"><path fill="none" stroke="#000000" d="M 48 379 L 68 379 L 68 389 L 48 389 L 48 379 Z Z" stroke-miterlimit="10"/></g><g transform="translate(-6,-38) scale(1,1)"><g><path fill="none" stroke="none"/><text fill="#000000" stroke="none" font-family="Arial" font-size="13px" font-style="normal" font-weight="bold" text-decoration="none" x="112.9599609375" y="371.5">Webserver</text></g></g><g transform="translate(-6,-38) scale(1,1)"><g><path fill="none" stroke="none"/><text fill="#000000" stroke="none" font-family="Arial" font-size="13px" font-style="normal" font-weight="normal" text-decoration="none" x="72.5" y="386.5">(from Application Server)</text></g></g><g transform="translate(-6,-38) scale(1,1)"><rect fill="#C0C0C0" stroke="none" x="65" y="423" width="162.76806640625" height="52" opacity="0.2"/></g><g transform="translate(-6,-38) scale(1,1)"><rect fill="#ffffff" stroke="none" x="58" y="416" width="162.76806640625" height="52"/></g><g transform="translate(-6,-38) scale(1,1)"><path fill="none" stroke="#000000" d="M 58 416 L 220.76806640625 416 L 220.76806640625 468 L 58 468 L 58 416 Z Z" stroke-miterlimit="10"/></g><g transform="translate(-6,-38) scale(1,1)"><rect fill="#ffffff" stroke="none" x="48" y="423" width="20" height="10"/></g><g transform="translate(-6,-38) scale(1,1)"><path fill="none" stroke="#000000" d="M 48 423 L 68 423 L 68 433 L 48 433 L 48 423 Z Z" stroke-miterlimit="10"/></g><g transform="translate(-6,-38) scale(1,1)"><rect fill="#ffffff" stroke="none" x="48" y="443" width="20" height="10"/></g><g transform="translate(-6,-38) scale(1,1)"><path fill="none" stroke="#000000" d="M 48 443 L 68 443 L 68 453 L 48 453 L 48 443 Z Z" stroke-miterlimit="10"/></g><g transform="translate(-6,-38) scale(1,1)"><g><path fill="none" stroke="none"/><text fill="#000000" stroke="none" font-family="Arial" font-size="13px" font-style="normal" font-weight="normal" text-decoration="none" x="104.65087890625" y="433.5">«Framework»</text></g></g><g transform="translate(-6,-38) scale(1,1)"><g><path fill="none" stroke="none"/><text fill="#000000" stroke="none" font-family="Arial" font-size="13px" font-style="normal" font-weight="bold" text-decoration="none" x="123.785888671875" y="448.5">Django</text></g></g><g transform="translate(-6,-38) scale(1,1)"><g><path fill="none" stroke="none"/><text fill="#000000" stroke="none" font-family="Arial" font-size="13px" font-style="normal" font-weight="normal" text-decoration="none" x="72.5" y="463.5">(from Application Server)</text></g></g><g transform="translate(-6,-38) scale(1,1)"><path fill="none" stroke="#000000" d="M 134 208 L 134 312" stroke-miterlimit="10"/></g><g transform="translate(-6,-38) scale(1,1)"><g><path fill="none" stroke="none"/><text fill="#000000" stroke="none" font-family="Arial" font-size="13px" font-style="normal" font-weight="normal" text-decoration="none" x="128" y="266">+HTTP</text></g></g><g transform="translate(-6,-38) scale(1,1)"><path fill="none" stroke="#000000" d="M 240 435 L 384 435" stroke-miterlimit="10"/></g><g transform="translate(-6,-38) scale(1,1)"><g><path fill="none" stroke="none"/><text fill="#000000" stroke="none" font-family="Arial" font-size="13px" font-style="normal" font-weight="normal" text-decoration="none" x="244" y="427">+TCP/IP or local socket</text></g></g><g transform="translate(-6,-38) scale(1,1)"><rect fill="#C0C0C0" stroke="none" x="65" y="501" width="162.76806640625" height="44" opacity="0.2"/></g><g transform="translate(-6,-38) scale(1,1)"><rect fill="#ffffff" stroke="none" x="58" y="494" width="162.76806640625" height="44"/></g><g transform="translate(-6,-38) scale(1,1)"><path fill="none" stroke="#000000" d="M 58 494 L 220.76806640625 494 L 220.76806640625 538 L 58 538 L 58 494 Z Z" stroke-miterlimit="10"/></g><g transform="translate(-6,-38) scale(1,1)"><rect fill="#ffffff" stroke="none" x="48" y="501" width="20" height="10"/></g><g transform="translate(-6,-38) scale(1,1)"><path fill="none" stroke="#000000" d="M 48 501 L 68 501 L 68 511 L 48 511 L 48 501 Z Z" stroke-miterlimit="10"/></g><g transform="translate(-6,-38) scale(1,1)"><rect fill="#ffffff" stroke="none" x="48" y="521" width="20" height="10"/></g><g transform="translate(-6,-38) scale(1,1)"><path fill="none" stroke="#000000" d="M 48 521 L 68 521 L 68 531 L 48 531 L 48 521 Z Z" stroke-miterlimit="10"/></g><g transform="translate(-6,-38) scale(1,1)"><g><path fill="none" stroke="none"/><text fill="#000000" stroke="none" font-family="Arial" font-size="13px" font-style="normal" font-weight="bold" text-decoration="none" x="92.36181640625" y="513.5">MySQL connector</text></g></g><g transform="translate(-6,-38) scale(1,1)"><g><path fill="none" stroke="none"/><text fill="#000000" stroke="none" font-family="Arial" font-size="13px" font-style="normal" font-weight="normal" text-decoration="none" x="72.5" y="528.5">(from Application Server)</text></g></g><g transform="translate(-6,-38) scale(1,1)"><path fill="none" stroke="#000000" d="M 134 493 L 134 469" stroke-miterlimit="10" stroke-dasharray="3"/></g><g transform="translate(-6,-38) scale(1,1)"><path fill="none" stroke="#000000" d="M 138.209517756016 479.16267485762415 L 134 469 L 129.790482243984 479.16267485762415" stroke-miterlimit="10"/></g><g transform="translate(-6,-38) scale(1,1)"><path fill="none" stroke="#000000" d="M 134 415 L 134 397" stroke-miterlimit="10" stroke-dasharray="3"/></g><g transform="translate(-6,-38) scale(1,1)"><path fill="none" stroke="#000000" d="M 138.209517756016 407.16267485762415 L 134 397 L 129.790482243984 407.16267485762415" stroke-miterlimit="10"/></g></g></svg>